<svg xmlns="http://www.w3.org/2000/svg" viewBox="0 0 60 70" fill="none" stroke="#3d5a6e" stroke-width="1.2" stroke-linecap="round">
  <line x1="30" y1="65" x2="30" y2="38"/>
  <circle cx="30" cy="26" r="9"/>
  <ellipse cx="30" cy="10" rx="5" ry="8"/>
  <ellipse cx="30" cy="10" rx="5" ry="8" transform="rotate(45 30 26)"/>
  <ellipse cx="30" cy="10" rx="5" ry="8" transform="rotate(90 30 26)"/>
  <ellipse cx="30" cy="10" rx="5" ry="8" transform="rotate(135 30 26)"/>
  <ellipse cx="30" cy="10" rx="5" ry="8" transform="rotate(180 30 26)"/>
  <ellipse cx="30" cy="10" rx="5" ry="8" transform="rotate(225 30 26)"/>
  <ellipse cx="30" cy="10" rx="5" ry="8" transform="rotate(270 30 26)"/>
  <ellipse cx="30" cy="10" rx="5" ry="8" transform="rotate(315 30 26)"/>
</svg>