<svg xmlns="http://www.w3.org/2000/svg" viewBox="0 0 40 70" fill="none" stroke="#3d5a6e" stroke-width="1.2" stroke-linecap="round" stroke-linejoin="round">
  <line x1="20" y1="65" x2="20" y2="5"/>
  <ellipse cx="20" cy="12" rx="6" ry="9" transform="rotate(-20 20 12)"/>
  <ellipse cx="20" cy="12" rx="6" ry="9" transform="rotate(20 20 12)"/>
  <ellipse cx="20" cy="26" rx="5" ry="8" transform="rotate(-22 20 26)"/>
  <ellipse cx="20" cy="26" rx="5" ry="8" transform="rotate(22 20 26)"/>
  <ellipse cx="20" cy="39" rx="5" ry="7" transform="rotate(-18 20 39)"/>
  <ellipse cx="20" cy="39" rx="5" ry="7" transform="rotate(18 20 39)"/>
  <ellipse cx="20" cy="51" rx="4" ry="6" transform="rotate(-15 20 51)"/>
  <ellipse cx="20" cy="51" rx="4" ry="6" transform="rotate(15 20 51)"/>
</svg>