<svg xmlns="http://www.w3.org/2000/svg" viewBox="0 0 500 350">
  <defs>
    <linearGradient id="bg2" x1="0%" y1="0%" x2="0%" y2="100%">
      <stop offset="0%" style="stop-color:#c8e6c9"/>
      <stop offset="100%" style="stop-color:#388e3c"/>
    </linearGradient>
  </defs>
  <rect width="500" height="350" fill="url(#bg2)"/>
  <!-- Road/path -->
  <path d="M250,350 Q250,200 400,50" stroke="#f5f0e8" stroke-width="40" fill="none" opacity="0.3"/>
  <!-- Globe -->
  <circle cx="250" cy="160" r="90" fill="none" stroke="white" stroke-width="2.5" opacity="0.7"/>
  <ellipse cx="250" cy="160" rx="45" ry="90" fill="none" stroke="white" stroke-width="1.5" opacity="0.5"/>
  <line x1="160" y1="160" x2="340" y2="160" stroke="white" stroke-width="1.5" opacity="0.5"/>
  <line x1="170" y1="110" x2="330" y2="110" stroke="white" stroke-width="1" opacity="0.4"/>
  <line x1="170" y1="210" x2="330" y2="210" stroke="white" stroke-width="1" opacity="0.4"/>
  <!-- Continents simplified -->
  <path d="M210,130 Q230,120 250,135 Q260,125 275,130 Q280,145 265,155 Q250,150 235,158 Q215,150 210,130Z" fill="white" opacity="0.5"/>
  <path d="M220,175 Q235,168 250,175 Q260,185 250,195 Q237,195 225,188Z" fill="white" opacity="0.5"/>
  <!-- Airplane -->
  <g transform="translate(330,80) rotate(-30)">
    <polygon points="0,0 -30,10 -25,0 -30,-10" fill="white" opacity="0.85"/>
    <rect x="-18" y="-3" width="6" height="6" fill="white" opacity="0.7"/>
  </g>
</svg>
